<?xml version="1.0" encoding="UTF-8"?>
<svg width="500px" height="500px" viewBox="0 0 500 500" version="1.1" xmlns="http://www.w3.org/2000/svg" xmlns:xlink="http://www.w3.org/1999/xlink">
    <title>logo</title>
    <defs>
        <linearGradient x1="50%" y1="1.16914336%" x2="50%" y2="100%" id="linearGradient-1">
            <stop stop-color="#83B9E0" offset="0%"></stop>
            <stop stop-color="#1F2932" offset="100%"></stop>
        </linearGradient>
        <path d="M446.699906,105.197772 C443.900945,96.2447706 437.183437,88.9704565 428.786552,84.4939556 L258.049899,2.7978131 C253.571561,0.55956262 248.53343,0 244.055092,0 C239.576753,0 234.538623,0 230.060284,1.11912524 L59.3236313,83.3748303 C50.9267456,87.2917687 44.7690302,94.5660827 42.529861,104.078647 L0.545438363,288.174749 C-1.13393855,297.687314 1.10523067,307.199878 6.70315349,315.033755 L124.819331,461.079599 C131.536839,467.79435 141.053308,472.270851 150.569777,472.830414 L338.659991,472.830414 C348.736253,473.949539 358.252722,469.473038 364.410437,461.079599 L482.526614,315.033755 C488.124537,307.199878 490.363706,297.687314 489.244121,288.174749 L446.699906,105.197772 Z" id="path-2"></path>
        <path d="M446.699906,105.197772 C443.900945,96.2447706 437.183437,88.9704565 428.786552,84.4939556 L258.049899,2.7978131 C253.571561,0.55956262 248.53343,0 244.055092,0 C239.576753,0 234.538623,0 230.060284,1.11912524 L59.3236313,83.3748303 C50.9267456,87.2917687 44.7690302,94.5660827 42.529861,104.078647 L0.545438363,288.174749 C-1.13393855,297.687314 1.10523067,307.199878 6.70315349,315.033755 L124.819331,461.079599 C131.536839,467.79435 141.053308,472.270851 150.569777,472.830414 L338.659991,472.830414 C348.736253,473.949539 358.252722,469.473038 364.410437,461.079599 L482.526614,315.033755 C488.124537,307.199878 490.363706,297.687314 489.244121,288.174749 L446.699906,105.197772 Z" id="path-4"></path>
    </defs>
    <g id="Page-1" stroke="none" stroke-width="1" fill="none" fill-rule="evenodd">
        <g id="Group" transform="translate(5.000000, 8.000000)">
            <mask id="mask-3" fill="white">
                <use xlink:href="#path-2"></use>
            </mask>
            <use id="path10349" fill="url(#linearGradient-1)" fill-rule="nonzero" xlink:href="#path-2"></use>
            <mask id="mask-5" fill="white">
                <use xlink:href="#path-4"></use>
            </mask>
            <use id="path10349" fill="#326DE6" fill-rule="nonzero" xlink:href="#path-4"></use>
            <g id="Group-2" mask="url(#mask-5)">
                <g transform="translate(74.000000, 131.000000)">
                    <path d="M149.777043,342 L110.527482,244.594507 C101.449891,226.548004 93.2621468,213.108707 85.9642485,204.276616 C75.017401,191.028479 55.9631268,176.289183 49.9285295,171.256204 C43.8939323,166.223225 38.8489642,164.016623 33.3747796,157.391634 C29.7253232,152.974974 26.8384029,147.424763 24.7140186,140.740999 L19.3918122,135.80386 C13.8476911,120.213299 9.97388766,109.588365 7.77040194,103.929057 C5.56691621,98.2697487 5.2039961,92.4955653 6.68164158,86.6065066 C3.66799994,84.041934 1.82920467,80.781719 1.16525579,76.8258614 C0.169332476,70.8920751 -0.862671011,60.8561232 1.16525579,53.7394636 C2.517207,48.9950238 22.8268659,39.005595 62.0942325,23.7711771 C67.3621803,15.4180914 72.6413403,10.5186142 77.9317124,9.07274556 C85.8672706,6.90394262 108.850992,9.36282559 115.719663,9.07274556 C122.588334,8.78266554 123.603694,8.79859229 129.285794,6.90394262 C131.277688,6.23976194 142.992085,-0.413768044 154.457403,0.0203332314 C164.796152,0.411780254 162.44401,1.91132209 179.201473,6.90394262 C195.958936,11.8965631 190.918728,9.677037 211.906772,17.1364622 C232.894816,24.5958875 252.67132,34.8713129 259.654667,37.282465 C266.638014,39.6936171 266.04525,39.504938 274.753029,38.8354968 C280.558215,38.3892027 290.348797,36.7319267 304.124774,33.8636689 C311.166402,32.8646107 316.894934,33.4366249 321.310369,35.5797114 C325.725805,37.7227979 330.381804,41.8169665 335.278368,47.8622172 C338.940025,52.5115674 340.770854,57.1736158 340.770854,61.8483626 C340.770854,66.5231094 338.940025,72.3740732 335.278368,79.4012541 C333.016093,85.0174999 332.414767,89.740382 333.474389,93.5699007 C334.534012,97.3994193 337.91566,102.724733 343.619334,109.54584 C355.254555,124.777873 364.635008,139.510855 371.760691,153.744788 C378.886375,167.978721 387.966145,190.121015 399,220.17167 L399,342 L149.777043,342 Z" id="Path" fill="#F6F8F7"></path>
                    <path d="M77.8674107,140.602762 L55.9028518,65.9626363 L29.6399602,48 L20.1218275,48 C12.8540831,49.086041 7.60815218,50.8967669 4.38403482,53.4321775 C1.15991746,55.9675882 -0.285883835,60.1444078 0.0466309453,65.9626363 C0.502903978,72.2768061 1.14171353,76.6919691 1.96305961,79.2081254 C2.78440569,81.7242817 4.37276051,84.1319352 6.72812408,86.4310859 C5.70163701,89.6911058 5.53436072,93.3011389 6.22629522,97.2611851 C6.91822971,101.221231 8.67242434,106.693373 11.4888791,113.67761 L19.4380124,135.662232 L24.7601004,140.602762 C26.6888013,145.752106 28.3154212,149.466573 29.6399602,151.746164 C30.9644991,154.025756 33.1745643,156.914396 36.2701555,160.412085 L74.3474389,191.901444 C86.4520401,204.785661 96.1727918,216.097454 103.509694,225.836824 C114.515048,240.445878 108.879159,229.702129 122.992528,256.475359 C137.105898,283.248589 142.087188,296.051634 148.48554,311.156538 C152.751109,321.226474 156.329357,331.507628 159.220286,342 L325.451788,342 L338,292.880709 L321.952412,245.153351 L131.252497,172.088613 L77.8674107,140.602762 Z" id="Path-7" fill="#CCC4B4"></path>
                    <path d="M224.611367,26.1978087 C243.71625,35.3743841 240.686227,38.5954317 257.65434,47.6889252 C274.622453,56.7824188 287.850611,60.6300385 293.56201,62.7726884 C299.27341,64.9153383 306.99596,59.7080671 311.244453,78.1350435 C315.492945,96.5620199 318.81333,87.5658657 326.738103,114.776516 C334.662876,141.987166 348,200.695493 348,235.324957 C348,258.411266 344.70043,278.302947 338.10129,295 C333.845923,276.835798 318.999496,259.859033 293.56201,244.069705 C255.405781,220.385712 251.842388,221.665329 211.29695,203.563322 C170.751512,185.461315 134.180097,176.474377 106.696833,165.16914 C79.2135689,153.863902 69.5252855,135.593184 57.778223,107.210362 C51.8728935,92.9421205 49.1952938,80.452622 50.2268934,77.4075935 C51.2584931,74.362565 48.260264,78.1350435 46.9146696,74.6433636 C45.5690751,71.1516837 42.0225585,64.4661419 40.0684886,61.2579839 C36.2322505,54.9597149 33.3659221,51.8888176 32.3530074,50.9403922 C30.824143,49.5088661 28.7064738,48.4250438 26,47.6889252 C47.2691271,36.7268126 62.4356091,29.563107 71.499446,26.1978087 C85.0952014,21.1498611 104.197219,19.7022266 119.250043,14.2331495 C134.302867,8.76407239 142.690923,-3.6359948 170.25877,4.93198312 C197.826617,13.499961 205.506484,17.0212333 224.611367,26.1978087 Z" id="Path-3" fill="#E3E4E1"></path>
                    <path d="M9.18323349,78.4071016 C8.1995753,73.4333649 7.10405748,67 9.18323349,67 C11.2624095,67 12.5616582,69.7275754 14.0194477,72.8104549 C15.4772372,75.8933344 16.7931298,80.8293368 16.9434843,83.8416345 C17.0938388,86.8539323 17.0369961,87.5088372 15.5860612,87.9705727 C14.1351264,88.4323083 10.1668917,83.3808383 9.18323349,78.4071016 Z" id="Path-5" fill="#3A3429"></path>
                    <path d="M32.1398402,81.8018088 C29.8618332,80.5823617 26.7801495,78.4145026 25.270858,75.7230106 C23.7615664,73.0315186 22.8849098,69.4361003 23.0122008,67.5934758 C23.1394918,65.7508514 23.4611623,64.1731715 24.7416311,64.0378018 C26.0221,63.9024321 28.845408,63.9833558 29.9524666,66.859759 C31.0595252,69.7361622 31.3509262,70.9235147 32.1398402,72.6181794 C32.9287542,74.3128442 33.7075269,75.7127196 34.6681878,76.9895911 C35.6288486,78.2664627 34.4178471,83.0212558 32.1398402,81.8018088 Z" id="Path-6" fill="#3A3429"></path>
                    <path d="M20,134.965036 C23.4109389,132.026164 26.3585199,130.120387 28.8427429,129.247706 C33.3682895,127.657929 40.9609291,127.240276 46.2994532,127.078596 C60.9008492,126.636386 62.6690087,128.155821 75.0939044,129.247706 C83.3771681,129.975629 91.2538975,130.756004 98.7240923,131.588831 L143,132.241828 C127.730387,133.355818 113.934912,133.79704 101.613576,133.565493 C83.1315709,133.218173 74.5834114,131.19712 63.3659698,130.745319 C52.1485283,130.293519 44.122149,130.156677 37.1042689,130.745319 C32.4256822,131.137747 28.4939383,134.222641 25.3090373,140 L20,134.965036 Z" id="Path-4" fill="#3A3429"></path>
                    <path d="M145.103917,30.5345113 C144.525127,28.5761891 146.463376,26.2294757 148.456961,25.1070138 C150.590887,23.9055352 152.936064,23 156.894659,23 C164.551506,23 172.257074,29.677459 173.765146,31.8534569 C175.273219,34.0294547 169.28596,36 162.46589,36 C155.64582,36 146.302241,34.5890134 145.103917,30.5345113 Z" id="Path-2" fill="#3A3429"></path>
                    <path d="M298.907209,56 C289.45813,56 287.257564,55.3030237 285.35011,51.793964 C283.442657,48.2849042 289.608804,45.0391906 297.058016,43.4207332 C304.507229,41.8022759 311.000781,41.2692268 318.114624,43.4207332 C325.228466,45.5722396 323.999533,47.9390117 318.114624,50.9041905 C312.229715,53.8693693 308.356287,56 298.907209,56 Z" id="Path-8" fill="#E3E4E1"></path>
                </g>
            </g>
        </g>
    </g>
</svg>